<?xml version="1.0" standalone="no"?><!DOCTYPE svg PUBLIC "-//W3C//DTD SVG 1.1//EN" "http://www.w3.org/Graphics/SVG/1.1/DTD/svg11.dtd"><svg t="1620634641388" class="icon" viewBox="0 0 1024 1024" version="1.1" xmlns="http://www.w3.org/2000/svg" p-id="15490" xmlns:xlink="http://www.w3.org/1999/xlink" width="200" height="200"><defs><style type="text/css"></style></defs><path d="M945.8 189.1l-61.6 47C800.2 131.3 669.5 64 522.8 64 269.4 64 64.3 264 64 511.5 63.7 759.1 269.2 960 522.8 960c198.1 0 366.9-122.7 431.1-294.5 1.6-4.5-0.8-9.5-5.4-11l-61.9-20.8c-4.5-1.5-9.4 0.7-11 5.1-2 5.3-4.2 10.7-6.4 15.9-18.9 43.7-46 83-80.5 116.7s-74.7 60.2-119.4 78.7c-46.2 19.1-95.5 28.8-146.2 28.8-50.8 0-100-9.7-146.2-28.8-44.7-18.5-84.9-44.9-119.4-78.7-34.5-33.7-61.6-73-80.5-116.7-19.6-45.2-29.5-93.2-29.5-142.8 0-49.6 9.9-97.6 29.5-142.8 18.9-43.7 46-83 80.5-116.7s74.7-60.2 119.4-78.7c46.2-19.1 95.5-28.8 146.2-28.8 50.8 0 100 9.7 146.2 28.8 44.7 18.5 84.9 44.9 119.4 78.7 10.8 10.6 21 21.8 30.4 33.5L753.2 336c-5.8 4.4-3.8 13.3 3.3 15l191.9 45.9c5.5 1.3 10.8-2.8 10.8-8.2l0.9-193c-0.2-7-8.6-11-14.3-6.6z m0 0" p-id="15491"></path></svg>